<svg width="26" height="26" viewBox="0 0 26 26" fill="none" xmlns="http://www.w3.org/2000/svg">
<g clip-path="url(#clip0_108_485)">
<path d="M25.7623 13.5748L23.3248 16.0123C23.2493 16.0879 23.1597 16.1478 23.0611 16.1887C22.9625 16.2296 22.8567 16.2506 22.75 16.2506C22.6432 16.2506 22.5375 16.2296 22.4388 16.1887C22.3402 16.1478 22.2506 16.0879 22.1751 16.0123L19.7376 13.5748C19.5852 13.4224 19.4995 13.2156 19.4995 13C19.4995 12.7844 19.5852 12.5776 19.7376 12.4252C19.8901 12.2727 20.0969 12.1871 20.3125 12.1871C20.5281 12.1871 20.7348 12.2727 20.8873 12.4252L21.9375 13.4763V13C21.9384 11.1075 21.3386 9.26359 20.2244 7.73384C19.1103 6.20408 17.5393 5.06748 15.7378 4.48776C13.9363 3.90804 11.9972 3.91513 10.2 4.50801C8.40281 5.10088 6.84017 6.24894 5.73723 7.7868C5.61144 7.96188 5.42125 8.07983 5.2085 8.11468C4.99574 8.14954 4.77786 8.09845 4.60278 7.97266C4.42769 7.84687 4.30975 7.65668 4.27489 7.44393C4.24004 7.23117 4.29113 7.01329 4.41692 6.83821C5.72046 5.02077 7.56726 3.66402 9.69129 2.96341C11.8153 2.26281 14.1069 2.25451 16.2359 2.93972C18.365 3.62493 20.2216 4.96827 21.5382 6.77622C22.8549 8.58418 23.5637 10.7634 23.5625 13V13.4763L24.6126 12.4252C24.7651 12.2727 24.9719 12.1871 25.1875 12.1871C25.4031 12.1871 25.6098 12.2727 25.7623 12.4252C25.9148 12.5776 26.0004 12.7844 26.0004 13C26.0004 13.2156 25.9148 13.4224 25.7623 13.5748ZM21.58 19.1608C20.276 20.9769 18.4295 22.3323 16.3062 23.0321C14.1828 23.7319 11.8922 23.74 9.76401 23.055C7.63583 22.3701 5.77986 21.0276 4.46327 19.2207C3.14668 17.4138 2.43737 15.2357 2.43746 13V12.5237L1.38731 13.5748C1.23485 13.7273 1.02807 13.813 0.812464 13.813C0.596855 13.813 0.390078 13.7273 0.23762 13.5748C0.0851617 13.4224 -0.000488281 13.2156 -0.000488281 13C-0.000488281 12.7844 0.0851617 12.5776 0.23762 12.4252L2.67512 9.98766C2.75058 9.91212 2.84019 9.85219 2.93882 9.8113C3.03746 9.77041 3.14319 9.74936 3.24996 9.74936C3.35674 9.74936 3.46247 9.77041 3.5611 9.8113C3.65974 9.85219 3.74935 9.91212 3.82481 9.98766L6.26231 12.4252C6.41477 12.5776 6.50042 12.7844 6.50042 13C6.50042 13.2156 6.41477 13.4224 6.26231 13.5748C6.10985 13.7273 5.90307 13.813 5.68746 13.813C5.47186 13.813 5.26508 13.7273 5.11262 13.5748L4.06246 12.5237V13C4.06054 15.1879 4.86465 17.2997 6.32121 18.9323C7.22739 17.6191 8.50158 16.6033 9.98356 16.0123C9.18749 15.3853 8.6066 14.5259 8.32166 13.5534C8.03672 12.581 8.0619 11.5439 8.39368 10.5864C8.72547 9.62894 9.34738 8.79865 10.1729 8.21102C10.9985 7.62338 11.9866 7.30761 13 7.30761C14.0133 7.30761 15.0014 7.62338 15.827 8.21102C16.6525 8.79865 17.2745 9.62894 17.6062 10.5864C17.938 11.5439 17.9632 12.581 17.6783 13.5534C17.3933 14.5259 16.8124 15.3853 16.0164 16.0123C17.4997 16.6034 18.7747 17.6205 19.6807 18.9353C19.8861 18.7046 20.0797 18.4636 20.2607 18.2132C20.3865 18.0381 20.5767 17.9202 20.7894 17.8853C21.0022 17.8505 21.22 17.9016 21.3951 18.0273C21.5702 18.1531 21.6881 18.3433 21.723 18.5561C21.7579 18.7688 21.7068 18.9867 21.581 19.1618L21.58 19.1608ZM13 15.4375C13.6428 15.4375 14.2711 15.2469 14.8056 14.8898C15.34 14.5327 15.7566 14.0251 16.0026 13.4312C16.2486 12.8374 16.3129 12.1839 16.1875 11.5535C16.0621 10.923 15.7526 10.3439 15.2981 9.88941C14.8435 9.43489 14.2644 9.12535 13.634 8.99995C13.0036 8.87455 12.3501 8.93891 11.7562 9.18489C11.1624 9.43088 10.6548 9.84744 10.2977 10.3819C9.94057 10.9164 9.74996 11.5447 9.74996 12.1875C9.74996 13.0495 10.0924 13.8761 10.7019 14.4856C11.3114 15.0951 12.138 15.4375 13 15.4375ZM13 21.9375C14.9829 21.9349 16.909 21.2744 18.4762 20.0596C17.8884 19.1404 17.0787 18.3838 16.1217 17.8598C15.1646 17.3358 14.0911 17.0611 13 17.0611C11.9089 17.0611 10.8353 17.3358 9.87826 17.8598C8.92122 18.3838 8.11149 19.1404 7.52371 20.0596C9.08861 21.2788 11.0162 21.9398 13 21.9375Z" fill="#3E1F67"/>
</g>
<defs>
<clipPath id="clip0_108_485">
<rect width="26" height="26" fill="white"/>
</clipPath>
</defs>
</svg>
