<svg width="22" height="22" viewBox="0 0 22 22" fill="none" xmlns="http://www.w3.org/2000/svg">
<path d="M15.6292 18.59C14.7308 19.4608 13.75 19.3233 12.8058 18.9108C11.8067 18.4892 10.89 18.4708 9.83582 18.9108C8.51582 19.4792 7.81915 19.3142 7.03082 18.59C2.55749 13.9792 3.21749 6.9575 8.29582 6.70083C9.53332 6.765 10.395 7.37917 11.1192 7.43417C12.2008 7.21417 13.2367 6.58167 14.3917 6.66417C15.7758 6.77417 16.8208 7.32417 17.5083 8.31417C14.6483 10.0283 15.3267 13.7958 17.9483 14.85C17.4258 16.225 16.7475 17.5908 15.62 18.5992L15.6292 18.59ZM11.0275 6.64583C10.89 4.60167 12.5492 2.915 14.4558 2.75C14.7217 5.115 12.3108 6.875 11.0275 6.64583Z" fill="black"/>
</svg>
