<svg width="22" height="22" viewBox="0 0 22 22" fill="none" xmlns="http://www.w3.org/2000/svg">
<path fill-rule="evenodd" clip-rule="evenodd" d="M6.96514 4.11277C7.20973 2.91205 8.27823 2.0625 9.5024 2.0625H12.4974C13.7216 2.0625 14.7901 2.91205 15.0347 4.11277C15.0912 4.38996 15.3423 4.59329 15.6034 4.59329H15.6184L15.6335 4.59394C16.9199 4.6502 17.9081 4.80807 18.7331 5.34928C19.2528 5.69027 19.7 6.12899 20.0483 6.64092C20.4818 7.27785 20.673 8.00887 20.7646 8.893C20.8541 9.75681 20.8541 10.8396 20.8541 12.211V12.289C20.8541 13.6604 20.8541 14.7432 20.7646 15.607C20.673 16.4911 20.4818 17.2222 20.0483 17.8591C19.7 18.371 19.2528 18.8097 18.7331 19.1507C18.0882 19.5738 17.3489 19.7603 16.4523 19.8498C15.5744 19.9375 14.4732 19.9375 13.0747 19.9375H8.9251C7.52665 19.9375 6.42545 19.9375 5.54755 19.8498C4.6509 19.7603 3.91162 19.5738 3.26678 19.1507C2.747 18.8097 2.29988 18.371 1.95149 17.8591C1.51803 17.2222 1.32684 16.4911 1.23524 15.607C1.14574 14.7432 1.14574 13.6604 1.14575 12.289V12.211C1.14574 10.8396 1.14574 9.75681 1.23524 8.89299C1.32684 8.00887 1.51803 7.27785 1.95149 6.64092C2.29988 6.12899 2.747 5.69027 3.26678 5.34928C4.09176 4.80807 5.0799 4.6502 6.36638 4.59394L6.38139 4.59329H6.39642C6.65756 4.59329 6.90868 4.38996 6.96514 4.11277ZM9.5024 3.4375C8.91471 3.4375 8.42322 3.84358 8.31247 4.38723C8.13312 5.26771 7.3525 5.96004 6.41322 5.96821C5.177 6.02314 4.51483 6.175 4.021 6.49896C3.65109 6.74164 3.33431 7.05293 3.08822 7.41452C2.83508 7.78649 2.68296 8.26215 2.60292 9.0347C2.52161 9.8194 2.52075 10.831 2.52075 12.25C2.52075 13.669 2.52161 14.6806 2.60292 15.4653C2.68296 16.2379 2.83508 16.7135 3.08822 17.0855C3.33431 17.4471 3.65109 17.7584 4.02101 18.001C4.40374 18.2521 4.89349 18.4027 5.6842 18.4816C6.48578 18.5617 7.51836 18.5625 8.96288 18.5625H13.037C14.4815 18.5625 15.5141 18.5617 16.3156 18.4816C17.1063 18.4027 17.5961 18.2521 17.9788 18.001C18.3488 17.7584 18.6655 17.4471 18.9116 17.0855C19.1648 16.7135 19.3169 16.2379 19.3969 15.4653C19.4782 14.6806 19.4791 13.669 19.4791 12.25C19.4791 10.831 19.4782 9.8194 19.3969 9.0347C19.3169 8.26215 19.1648 7.78649 18.9116 7.41452C18.6655 7.05293 18.3488 6.74164 17.9788 6.49896C17.485 6.175 16.8228 6.02314 15.5866 5.96821C14.6473 5.96004 13.8667 5.26771 13.6874 4.38723C13.5766 3.84358 13.0851 3.4375 12.4974 3.4375H9.5024ZM10.9999 9.85417C9.86083 9.85417 8.93742 10.7776 8.93742 11.9167C8.93742 13.0558 9.86083 13.9792 10.9999 13.9792C12.139 13.9792 13.0624 13.0558 13.0624 11.9167C13.0624 10.7776 12.139 9.85417 10.9999 9.85417ZM7.56242 11.9167C7.56242 10.0182 9.10144 8.47917 10.9999 8.47917C12.8984 8.47917 14.4374 10.0182 14.4374 11.9167C14.4374 13.8151 12.8984 15.3542 10.9999 15.3542C9.10144 15.3542 7.56242 13.8151 7.56242 11.9167ZM15.8124 9.16667C15.8124 8.78697 16.1202 8.47917 16.4999 8.47917H17.4166C17.7963 8.47917 18.1041 8.78697 18.1041 9.16667C18.1041 9.54636 17.7963 9.85417 17.4166 9.85417H16.4999C16.1202 9.85417 15.8124 9.54636 15.8124 9.16667Z" fill="#252525"/>
</svg>
