<svg width="12" height="16" viewBox="0 0 12 16" fill="none" xmlns="http://www.w3.org/2000/svg">
<path fill-rule="evenodd" clip-rule="evenodd" d="M6.16663 6.10352e-05C4.24849 6.10352e-05 2.69353 1.56766 2.69353 3.50139C2.69353 5.43512 4.24849 7.00272 6.16663 7.00272C8.08476 7.00272 9.63972 5.43512 9.63972 3.50139C9.63972 1.56766 8.08476 6.10352e-05 6.16663 6.10352e-05ZM3.7903 3.50139C3.7903 2.17831 4.85422 1.10574 6.16663 1.10574C7.47904 1.10574 8.54295 2.17831 8.54295 3.50139C8.54295 4.82447 7.47904 5.89704 6.16663 5.89704C4.85422 5.89704 3.7903 4.82447 3.7903 3.50139Z" fill="#121020"/>
<path fill-rule="evenodd" clip-rule="evenodd" d="M6.16663 8.1084C4.67551 8.1084 3.29859 8.45541 2.27541 9.04484C1.26773 9.62533 0.5 10.5115 0.5 11.6097C0.5 12.7079 1.26773 13.5941 2.27541 14.1746C3.29859 14.7641 4.67551 15.1111 6.16663 15.1111C7.65774 15.1111 9.03466 14.7641 10.0578 14.1746C11.0655 13.5941 11.8333 12.7079 11.8333 11.6097C11.8333 10.5115 11.0655 9.62533 10.0578 9.04484C9.03466 8.45541 7.65774 8.1084 6.16663 8.1084ZM1.59677 11.6097C1.59677 11.0795 1.97479 10.4915 2.81956 10.0048C3.64881 9.52713 4.83101 9.21409 6.16663 9.21409C7.50224 9.21409 8.68444 9.52713 9.5137 10.0048C10.3585 10.4915 10.7365 11.0795 10.7365 11.6097C10.7365 12.1399 10.3585 12.728 9.5137 13.2146C8.68444 13.6923 7.50224 14.0054 6.16663 14.0054C4.83101 14.0054 3.64881 13.6923 2.81956 13.2146C1.97479 12.728 1.59677 12.1399 1.59677 11.6097Z" fill="#121020"/>
</svg>
