<svg width="99" height="38" viewBox="0 0 99 38" fill="none" xmlns="http://www.w3.org/2000/svg">
<rect width="99" height="38" rx="19" fill="url(#paint0_linear_547_479)"/>
<path fill-rule="evenodd" clip-rule="evenodd" d="M19.1666 11.0001C17.2485 11.0001 15.6935 12.5677 15.6935 14.5014C15.6935 16.4351 17.2485 18.0027 19.1666 18.0027C21.0848 18.0027 22.6397 16.4351 22.6397 14.5014C22.6397 12.5677 21.0848 11.0001 19.1666 11.0001ZM16.7903 14.5014C16.7903 13.1783 17.8542 12.1058 19.1666 12.1058C20.479 12.1058 21.543 13.1783 21.543 14.5014C21.543 15.8245 20.479 16.8971 19.1666 16.8971C17.8542 16.8971 16.7903 15.8245 16.7903 14.5014Z" fill="white"/>
<path fill-rule="evenodd" clip-rule="evenodd" d="M19.1666 19.1084C17.6755 19.1084 16.2986 19.4554 15.2754 20.0449C14.2677 20.6253 13.5 21.5115 13.5 22.6097C13.5 23.708 14.2677 24.5942 15.2754 25.1746C16.2986 25.7641 17.6755 26.1111 19.1666 26.1111C20.6577 26.1111 22.0347 25.7641 23.0578 25.1746C24.0655 24.5942 24.8333 23.708 24.8333 22.6097C24.8333 21.5115 24.0655 20.6253 23.0578 20.0449C22.0347 19.4554 20.6577 19.1084 19.1666 19.1084ZM14.5968 22.6097C14.5968 22.0796 14.9748 21.4915 15.8196 21.0049C16.6488 20.5271 17.831 20.2141 19.1666 20.2141C20.5022 20.2141 21.6844 20.5271 22.5137 21.0049C23.3585 21.4915 23.7365 22.0796 23.7365 22.6097C23.7365 23.1399 23.3585 23.728 22.5137 24.2146C21.6844 24.6924 20.5022 25.0054 19.1666 25.0054C17.831 25.0054 16.6488 24.6924 15.8196 24.2146C14.9748 23.728 14.5968 23.1399 14.5968 22.6097Z" fill="white"/>
<path d="M38.8796 24.168C37.9182 24.168 37.0876 23.958 36.3876 23.538C35.6969 23.1087 35.1602 22.516 34.7776 21.76C34.4042 20.9947 34.2176 20.108 34.2176 19.1C34.2176 18.1013 34.4042 17.2193 34.7776 16.454C35.1602 15.6887 35.6969 15.096 36.3876 14.676C37.0876 14.2467 37.9182 14.032 38.8796 14.032C40.0276 14.032 40.9562 14.3073 41.6656 14.858C42.3842 15.4087 42.8416 16.1833 43.0376 17.182H41.4976C41.3576 16.6033 41.0682 16.1413 40.6296 15.796C40.2002 15.4507 39.6169 15.278 38.8796 15.278C38.2169 15.278 37.6429 15.432 37.1576 15.74C36.6722 16.048 36.2989 16.4867 36.0376 17.056C35.7762 17.6253 35.6456 18.3067 35.6456 19.1C35.6456 19.8933 35.7762 20.5793 36.0376 21.158C36.2989 21.7273 36.6722 22.166 37.1576 22.474C37.6429 22.7727 38.2169 22.922 38.8796 22.922C39.6169 22.922 40.2002 22.7587 40.6296 22.432C41.0682 22.096 41.3576 21.6433 41.4976 21.074H43.0376C42.8416 22.0447 42.3842 22.8053 41.6656 23.356C40.9562 23.8973 40.0276 24.168 38.8796 24.168ZM47.8624 24.168C47.1998 24.168 46.6024 24.014 46.0704 23.706C45.5478 23.398 45.1324 22.9687 44.8244 22.418C44.5258 21.858 44.3764 21.214 44.3764 20.486C44.3764 19.7393 44.5304 19.0907 44.8384 18.54C45.1464 17.98 45.5664 17.546 46.0984 17.238C46.6304 16.93 47.2278 16.776 47.8904 16.776C48.5624 16.776 49.1598 16.93 49.6824 17.238C50.2051 17.546 50.6158 17.9753 50.9144 18.526C51.2224 19.0767 51.3764 19.7253 51.3764 20.472C51.3764 21.2187 51.2224 21.8673 50.9144 22.418C50.6158 22.9687 50.2004 23.398 49.6684 23.706C49.1364 24.014 48.5344 24.168 47.8624 24.168ZM47.8624 22.964C48.2451 22.964 48.5904 22.8707 48.8984 22.684C49.2158 22.4973 49.4678 22.222 49.6544 21.858C49.8504 21.4847 49.9484 21.0227 49.9484 20.472C49.9484 19.9213 49.8551 19.464 49.6684 19.1C49.4818 18.7267 49.2298 18.4467 48.9124 18.26C48.6044 18.0733 48.2638 17.98 47.8904 17.98C47.5171 17.98 47.1718 18.0733 46.8544 18.26C46.5371 18.4467 46.2804 18.7267 46.0844 19.1C45.8978 19.464 45.8044 19.9213 45.8044 20.472C45.8044 21.0227 45.8978 21.4847 46.0844 21.858C46.2804 22.222 46.5324 22.4973 46.8404 22.684C47.1578 22.8707 47.4984 22.964 47.8624 22.964ZM53.0233 24V16.944H54.2833L54.3673 18.148C54.5913 17.728 54.9086 17.3967 55.3193 17.154C55.73 16.902 56.2013 16.776 56.7333 16.776C57.2933 16.776 57.774 16.888 58.1753 17.112C58.5766 17.336 58.8893 17.6767 59.1133 18.134C59.3373 18.582 59.4493 19.1467 59.4493 19.828V24H58.0493V19.968C58.0493 19.3147 57.9046 18.82 57.6153 18.484C57.326 18.148 56.906 17.98 56.3553 17.98C55.9913 17.98 55.6646 18.0687 55.3753 18.246C55.086 18.414 54.8526 18.666 54.6753 19.002C54.5073 19.338 54.4233 19.7487 54.4233 20.234V24H53.0233ZM64.1521 24C63.7041 24 63.3168 23.93 62.9901 23.79C62.6634 23.65 62.4114 23.4167 62.2341 23.09C62.0568 22.7633 61.9681 22.32 61.9681 21.76V18.134H60.7501V16.944H61.9681L62.1361 15.18H63.3681V16.944H65.3701V18.134H63.3681V21.774C63.3681 22.1753 63.4521 22.4507 63.6201 22.6C63.7881 22.74 64.0774 22.81 64.4881 22.81H65.3001V24H64.1521ZM69.2519 24.168C68.6732 24.168 68.1926 24.07 67.8099 23.874C67.4272 23.678 67.1426 23.4167 66.9559 23.09C66.7692 22.754 66.6759 22.3947 66.6759 22.012C66.6759 21.5453 66.7972 21.1487 67.0399 20.822C67.2826 20.486 67.6279 20.2293 68.0759 20.052C68.5239 19.8747 69.0606 19.786 69.6859 19.786H71.5199C71.5199 19.3753 71.4592 19.0347 71.3379 18.764C71.2166 18.4933 71.0346 18.2927 70.7919 18.162C70.5586 18.022 70.2599 17.952 69.8959 17.952C69.4759 17.952 69.1166 18.0547 68.8179 18.26C68.5192 18.456 68.3326 18.75 68.2579 19.142H66.8579C66.9139 18.6473 67.0819 18.2273 67.3619 17.882C67.6512 17.5273 68.0199 17.2567 68.4679 17.07C68.9159 16.874 69.3919 16.776 69.8959 16.776C70.5586 16.776 71.1139 16.8927 71.5619 17.126C72.0099 17.3593 72.3459 17.6907 72.5699 18.12C72.8032 18.54 72.9199 19.044 72.9199 19.632V24H71.7019L71.5899 22.81C71.4872 22.9967 71.3659 23.174 71.2259 23.342C71.0859 23.51 70.9179 23.6547 70.7219 23.776C70.5352 23.8973 70.3159 23.9907 70.0639 24.056C69.8212 24.1307 69.5506 24.168 69.2519 24.168ZM69.5179 23.034C69.8166 23.034 70.0872 22.9733 70.3299 22.852C70.5726 22.7307 70.7779 22.5673 70.9459 22.362C71.1232 22.1473 71.2539 21.9093 71.3379 21.648C71.4312 21.3773 71.4826 21.102 71.4919 20.822V20.78H69.8259C69.4246 20.78 69.0979 20.8313 68.8459 20.934C68.6032 21.0273 68.4259 21.158 68.3139 21.326C68.2019 21.494 68.1459 21.69 68.1459 21.914C68.1459 22.1473 68.1972 22.348 68.2999 22.516C68.4119 22.6747 68.5706 22.8007 68.7759 22.894C68.9812 22.9873 69.2286 23.034 69.5179 23.034ZM77.9689 24.168C77.2875 24.168 76.6809 24.014 76.1489 23.706C75.6169 23.3887 75.1969 22.9547 74.8889 22.404C74.5902 21.8533 74.4409 21.214 74.4409 20.486C74.4409 19.7487 74.5902 19.1047 74.8889 18.554C75.1969 17.994 75.6169 17.56 76.1489 17.252C76.6809 16.9347 77.2875 16.776 77.9689 16.776C78.8275 16.776 79.5462 17 80.1249 17.448C80.7035 17.896 81.0722 18.5027 81.2309 19.268H79.7749C79.6815 18.8573 79.4669 18.54 79.1309 18.316C78.8042 18.092 78.4122 17.98 77.9549 17.98C77.5815 17.98 77.2362 18.078 76.9189 18.274C76.6015 18.4607 76.3449 18.7407 76.1489 19.114C75.9622 19.478 75.8689 19.9307 75.8689 20.472C75.8689 20.8733 75.9249 21.2327 76.0369 21.55C76.1489 21.858 76.2982 22.1193 76.4849 22.334C76.6809 22.5487 76.9049 22.712 77.1569 22.824C77.4089 22.9267 77.6749 22.978 77.9549 22.978C78.2629 22.978 78.5382 22.9313 78.7809 22.838C79.0329 22.7353 79.2429 22.586 79.4109 22.39C79.5882 22.194 79.7095 21.9607 79.7749 21.69H81.2309C81.0722 22.4367 80.7035 23.0387 80.1249 23.496C79.5462 23.944 78.8275 24.168 77.9689 24.168ZM85.6306 24C85.1826 24 84.7953 23.93 84.4686 23.79C84.1419 23.65 83.8899 23.4167 83.7126 23.09C83.5353 22.7633 83.4466 22.32 83.4466 21.76V18.134H82.2286V16.944H83.4466L83.6146 15.18H84.8466V16.944H86.8486V18.134H84.8466V21.774C84.8466 22.1753 84.9306 22.4507 85.0986 22.6C85.2666 22.74 85.5559 22.81 85.9666 22.81H86.7786V24H85.6306Z" fill="white"/>
<defs>
<linearGradient id="paint0_linear_547_479" x1="49.5" y1="0" x2="49.5" y2="38" gradientUnits="userSpaceOnUse">
<stop stop-color="#825BDD"/>
<stop offset="1" stop-color="#5A23DB"/>
</linearGradient>
</defs>
</svg>
