<svg width="14" height="14" viewBox="0 0 14 14" fill="none" xmlns="http://www.w3.org/2000/svg">
<g clip-path="url(#clip0_108_364)">
<path d="M4.57062 9.43248C4.43645 9.29831 4.31045 9.15131 4.1967 8.99615C4.00712 8.73598 4.06429 8.37081 4.32504 8.18123C4.5852 7.99165 4.94979 8.04881 5.13995 8.30898C5.2152 8.41281 5.29979 8.51256 5.39487 8.60706C5.86329 9.07548 6.4857 9.33331 7.14779 9.33331C7.80987 9.33331 8.43287 9.07548 8.9007 8.60706L12.109 5.39873C13.0756 4.43215 13.0756 2.8589 12.109 1.89231C11.1425 0.925729 9.5692 0.925729 8.60262 1.89231L7.98545 2.50948C7.75737 2.73756 7.3887 2.73756 7.16062 2.50948C6.93254 2.2814 6.93254 1.91273 7.16062 1.68465L7.77779 1.06748C9.19937 -0.354687 11.5123 -0.354687 12.9339 1.06748C14.3555 2.48906 14.3555 4.80198 12.9339 6.22356L9.72554 9.4319C9.0372 10.1208 8.12137 10.5 7.14779 10.5C6.1742 10.5 5.25837 10.1208 4.57062 9.43248ZM3.64779 14C4.62195 14 5.5372 13.6208 6.22554 12.9319L6.8427 12.3147C7.07079 12.0872 7.07079 11.718 6.8427 11.4899C6.6152 11.2618 6.24595 11.2624 6.01787 11.4899L5.40012 12.1071C4.9317 12.5755 4.30929 12.8333 3.6472 12.8333C2.98512 12.8333 2.3627 12.5755 1.89429 12.1071C1.42587 11.6386 1.16804 11.0162 1.16804 10.3541C1.16804 9.69206 1.42587 9.06906 1.89429 8.60123L5.10262 5.3929C5.57104 4.92448 6.19345 4.66665 6.85554 4.66665C7.51762 4.66665 8.14062 4.92448 8.60845 5.3929C8.70179 5.48681 8.78695 5.58656 8.86279 5.6904C9.05179 5.95115 9.41637 6.00948 9.6777 5.81931C9.93845 5.62973 9.9962 5.26515 9.80662 5.0044C9.69579 4.85156 9.57037 4.70515 9.43387 4.56865C8.74495 3.87915 7.82912 3.49998 6.85554 3.49998C5.88195 3.49998 4.96612 3.87915 4.27779 4.56806L1.07004 7.7764C0.38112 8.46473 0.00195312 9.38056 0.00195312 10.3541C0.00195312 11.3277 0.38112 12.2436 1.07004 12.9319C1.75837 13.6208 2.67362 14 3.64779 14Z" fill="#5A23DB"/>
</g>
<defs>
<clipPath id="clip0_108_364">
<rect width="14" height="14" fill="white"/>
</clipPath>
</defs>
</svg>
