<svg width="21" height="21" viewBox="0 0 21 21" fill="none" xmlns="http://www.w3.org/2000/svg">
<path d="M15.6835 17.7917H5.31686C5.02788 17.7799 4.74405 17.7112 4.48162 17.5896C4.21919 17.468 3.98332 17.2959 3.78749 17.083C3.59167 16.8702 3.43974 16.6208 3.34039 16.3492C3.24105 16.0775 3.19624 15.789 3.20853 15.5V13C3.20853 12.8342 3.27438 12.6753 3.39159 12.5581C3.5088 12.4408 3.66777 12.375 3.83353 12.375C3.99929 12.375 4.15826 12.4408 4.27547 12.5581C4.39268 12.6753 4.45853 12.8342 4.45853 13V15.5C4.43701 15.7474 4.51157 15.9937 4.66672 16.1876C4.82188 16.3816 5.04574 16.5083 5.29186 16.5417H15.6835C15.9297 16.5083 16.1535 16.3816 16.3087 16.1876C16.4638 15.9937 16.5384 15.7474 16.5169 15.5V13C16.5169 12.8342 16.5827 12.6753 16.6999 12.5581C16.8171 12.4408 16.9761 12.375 17.1419 12.375C17.3076 12.375 17.4666 12.4408 17.5838 12.5581C17.701 12.6753 17.7669 12.8342 17.7669 13V15.5C17.7918 16.0795 17.5869 16.6454 17.1968 17.0745C16.8066 17.5037 16.2628 17.7614 15.6835 17.7917Z" fill="#5A23DB"/>
<path d="M10.4999 13.625C10.4178 13.6254 10.3364 13.6094 10.2605 13.5779C10.1847 13.5464 10.1159 13.5001 10.0582 13.4417L6.72487 10.1083C6.61447 9.98985 6.55437 9.83314 6.55723 9.67123C6.56008 9.50931 6.62568 9.35482 6.74019 9.24031C6.8547 9.1258 7.00919 9.06021 7.1711 9.05735C7.33302 9.05449 7.48973 9.11459 7.60821 9.22499L10.4999 12.1167L13.3915 9.22499C13.51 9.11459 13.6667 9.05449 13.8286 9.05735C13.9906 9.06021 14.145 9.1258 14.2596 9.24031C14.3741 9.35482 14.4397 9.50931 14.4425 9.67123C14.4454 9.83314 14.3853 9.98985 14.2749 10.1083L10.9415 13.4417C10.8838 13.5001 10.815 13.5464 10.7392 13.5779C10.6634 13.6094 10.582 13.6254 10.4999 13.625Z" fill="#5A23DB"/>
<path d="M10.5 13.625C10.3349 13.6228 10.1772 13.5563 10.0604 13.4395C9.9437 13.3228 9.87716 13.1651 9.875 13V3.83331C9.875 3.66755 9.94085 3.50858 10.0581 3.39137C10.1753 3.27416 10.3342 3.20831 10.5 3.20831C10.6658 3.20831 10.8247 3.27416 10.9419 3.39137C11.0592 3.50858 11.125 3.66755 11.125 3.83331V13C11.1228 13.1651 11.0563 13.3228 10.9396 13.4395C10.8228 13.5563 10.6651 13.6228 10.5 13.625Z" fill="#5A23DB"/>
</svg>
