<svg width="17" height="16" viewBox="0 0 17 16" fill="none" xmlns="http://www.w3.org/2000/svg">
<path fill-rule="evenodd" clip-rule="evenodd" d="M8.46167 0.833328L9.49992 0.833329C9.77606 0.833329 9.99992 1.05719 9.99992 1.33333C9.99992 1.60947 9.77606 1.83333 9.49992 1.83333H8.49992C6.91444 1.83333 5.77562 1.83439 4.90897 1.95091C4.0567 2.06549 3.54289 2.28342 3.16312 2.66319C2.78335 3.04296 2.56542 3.55678 2.45083 4.40905C2.33431 5.2757 2.33325 6.41451 2.33325 7.99999C2.33325 9.58548 2.33431 10.7243 2.45083 11.5909C2.56542 12.4432 2.78335 12.957 3.16312 13.3368C3.54289 13.7166 4.0567 13.9345 4.90897 14.0491C5.77562 14.1656 6.91444 14.1667 8.49992 14.1667C10.0854 14.1667 11.2242 14.1656 12.0909 14.0491C12.9431 13.9345 13.457 13.7166 13.8367 13.3368C14.2165 12.957 14.4344 12.4432 14.549 11.5909C14.6655 10.7243 14.6666 9.58548 14.6666 7.99999V6.99999C14.6666 6.72385 14.8904 6.49999 15.1666 6.49999C15.4427 6.49999 15.6666 6.72385 15.6666 6.99999V8.03824C15.6666 9.57717 15.6666 10.7832 15.5401 11.7242C15.4106 12.6873 15.1404 13.4474 14.5438 14.0439C13.9473 14.6404 13.1873 14.9107 12.2241 15.0402C11.2831 15.1667 10.0771 15.1667 8.53817 15.1667H8.46167C6.92274 15.1667 5.71671 15.1667 4.77572 15.0402C3.81257 14.9107 3.05255 14.6404 2.45601 14.0439C1.85947 13.4474 1.58924 12.6873 1.45975 11.7242C1.33324 10.7832 1.33324 9.57718 1.33325 8.03825V7.96174C1.33324 6.42281 1.33324 5.21679 1.45975 4.2758C1.58924 3.31264 1.85947 2.55263 2.45601 1.95609C3.05255 1.35955 3.81257 1.08932 4.77572 0.959826C5.71671 0.833313 6.92274 0.83332 8.46167 0.833328ZM11.6803 1.51727C12.5922 0.605348 14.0707 0.605348 14.9826 1.51727C15.8946 2.4292 15.8946 3.90772 14.9826 4.81964L10.5506 9.25171C10.3031 9.49926 10.148 9.65434 9.97497 9.7893C9.77118 9.94825 9.55067 10.0845 9.31735 10.1957C9.11926 10.2901 8.91122 10.3595 8.57911 10.4701L6.64276 11.1156C6.28526 11.2348 5.89112 11.1417 5.62466 10.8753C5.3582 10.6088 5.26515 10.2147 5.38432 9.85715L6.02976 7.92081C6.14044 7.5887 6.20978 7.38066 6.30418 7.18256C6.41538 6.94925 6.55166 6.72874 6.71062 6.52494C6.84558 6.35191 7.00065 6.19685 7.24822 5.94933L11.6803 1.51727ZM14.2755 2.22438C13.7541 1.70298 12.9088 1.70298 12.3874 2.22438L12.1363 2.47546C12.1514 2.53937 12.1726 2.61551 12.2021 2.70044C12.2976 2.97581 12.4784 3.33847 12.8199 3.67999C13.1614 4.02151 13.5241 4.2023 13.7995 4.29784C13.8844 4.32731 13.9605 4.34848 14.0245 4.36361L14.2755 4.11253C14.7969 3.59113 14.7969 2.74578 14.2755 2.22438ZM13.2367 5.15139C12.8927 5.00346 12.492 4.7663 12.1128 4.3871C11.7336 4.00789 11.4965 3.60721 11.3485 3.26323L7.97826 6.6335C7.70058 6.91118 7.59168 7.0213 7.49913 7.13996C7.38484 7.28649 7.28685 7.44503 7.20691 7.61278C7.14216 7.74863 7.09237 7.89528 6.96819 8.26783L6.68026 9.13162L7.3683 9.81965L8.23209 9.53172C8.60463 9.40754 8.75128 9.35775 8.88713 9.29301C9.05488 9.21306 9.21342 9.11507 9.35995 9.00078C9.47862 8.90823 9.58874 8.79933 9.86641 8.52166L13.2367 5.15139Z" fill="url(#paint0_linear_10_119)"/>
<defs>
<linearGradient id="paint0_linear_10_119" x1="8.49992" y1="0.833328" x2="8.49992" y2="15.1667" gradientUnits="userSpaceOnUse">
<stop stop-color="#825BDD"/>
<stop offset="1" stop-color="#5A23DB"/>
</linearGradient>
</defs>
</svg>
