<svg width="22" height="22" viewBox="0 0 22 22" fill="none" xmlns="http://www.w3.org/2000/svg">
<path fill-rule="evenodd" clip-rule="evenodd" d="M16.9582 1.14581C17.3379 1.14581 17.6457 1.45362 17.6457 1.83331V4.35415H20.1666C20.5463 4.35415 20.8541 4.66195 20.8541 5.04165C20.8541 5.42134 20.5463 5.72915 20.1666 5.72915H17.6457V8.24998C17.6457 8.62968 17.3379 8.93748 16.9582 8.93748C16.5785 8.93748 16.2707 8.62968 16.2707 8.24998V5.72915H13.7499C13.3702 5.72915 13.0624 5.42134 13.0624 5.04165C13.0624 4.66195 13.3702 4.35415 13.7499 4.35415H16.2707V1.83331C16.2707 1.45362 16.5785 1.14581 16.9582 1.14581Z" fill="#252525"/>
<path fill-rule="evenodd" clip-rule="evenodd" d="M10.9999 1.14581L10.9473 1.14581C8.83129 1.1458 7.17301 1.14579 5.87915 1.31975C4.55481 1.4978 3.50979 1.86936 2.68954 2.6896C1.8693 3.50985 1.49774 4.55487 1.31969 5.87921C1.14573 7.17307 1.14574 8.83136 1.14575 10.9474V11.0526C1.14574 13.1686 1.14573 14.8269 1.31969 16.1208C1.49774 17.4451 1.8693 18.4901 2.68954 19.3104C3.50979 20.1306 4.55481 20.5022 5.87915 20.6802C7.17301 20.8542 8.8313 20.8542 10.9473 20.8541H11.0525C13.1685 20.8542 14.8268 20.8542 16.1207 20.6802C17.445 20.5022 18.4901 20.1306 19.3103 19.3104C20.1305 18.4901 20.5021 17.4451 20.6801 16.1208C20.8541 14.8269 20.8541 13.1686 20.8541 11.0526V11C20.8541 10.6203 20.5463 10.3125 20.1666 10.3125C19.7869 10.3125 19.4791 10.6203 19.4791 11C19.4791 13.18 19.4776 14.7459 19.3174 15.9375C19.3111 15.9845 19.3045 16.0308 19.2978 16.0763L16.7549 13.7878C15.5638 12.7158 13.7899 12.609 12.4788 13.5304L12.2055 13.7225C11.7499 14.0427 11.1301 13.989 10.7364 13.5953L6.80417 9.66304C5.76338 8.62225 4.09387 8.56666 2.98615 9.53591L2.52165 9.94235C2.52582 8.29943 2.54939 7.05192 2.68243 6.06243C2.83998 4.89056 3.13963 4.18406 3.66182 3.66188C4.184 3.13969 4.89049 2.84004 6.06236 2.68249C7.25401 2.52227 8.81988 2.52081 10.9999 2.52081C11.3796 2.52081 11.6874 2.21301 11.6874 1.83331C11.6874 1.45362 11.3796 1.14581 10.9999 1.14581ZM2.68243 15.9375C2.83998 17.1094 3.13963 17.8159 3.66182 18.3381C4.184 18.8603 4.89049 19.1599 6.06236 19.3175C7.25401 19.4777 8.81988 19.4791 10.9999 19.4791C13.18 19.4791 14.7458 19.4777 15.9375 19.3175C17.1093 19.1599 17.8158 18.8603 18.338 18.3381C18.5613 18.1148 18.7438 17.8579 18.892 17.5453C18.8564 17.5236 18.8222 17.4982 18.79 17.4692L15.8351 14.8098C15.1204 14.1666 14.0561 14.1025 13.2694 14.6554L12.9961 14.8475C11.9939 15.5519 10.6303 15.4338 9.76414 14.5676L5.83189 10.6353C5.30297 10.1064 4.45453 10.0781 3.89159 10.5707L2.5211 11.7699C2.52346 13.556 2.54173 14.8911 2.68243 15.9375Z" fill="#252525"/>
</svg>
