<svg width="99" height="36" viewBox="0 0 99 36" fill="none" xmlns="http://www.w3.org/2000/svg">
<path d="M0 18C0 8.05888 8.05888 0 18 0H81C90.9411 0 99 8.05888 99 18C99 27.9411 90.9411 36 81 36H18C8.05888 36 0 27.9411 0 18Z" fill="url(#paint0_linear_547_474)"/>
<g clip-path="url(#clip0_547_474)">
<path d="M33.3312 14.3833C33.2852 14.2847 33.2145 14.198 33.1265 14.1327C33.0878 14.1033 33.0452 14.072 32.9998 14.038V12C32.9998 11.632 32.7018 11.3333 32.3332 11.3333C31.9645 11.3333 31.6665 11.632 31.6665 12V13.0813C30.1252 12.0127 27.9878 10.6667 26.9998 10.6667C25.6132 10.6667 21.9592 13.3193 20.8732 14.1327C20.7852 14.198 20.7152 14.2847 20.6685 14.3833C20.6272 14.4707 19.6665 16.5573 19.6665 20C19.6665 21.422 19.9892 24.6 20.0032 24.7347C20.0385 25.0747 20.3245 25.3333 20.6665 25.3333H24.6665C24.8645 25.3333 25.0518 25.2453 25.1792 25.0933C25.3058 24.9413 25.3585 24.7407 25.3225 24.546L25.2732 24.2913C25.1712 23.7773 25.0005 22.9173 25.0005 22C25.0005 20.9873 25.1332 20.0613 25.2192 19.5687C25.5918 19.4687 26.2365 19.3333 27.0005 19.3333C27.7592 19.3333 28.4065 19.4693 28.7818 19.5693C28.8678 20.0633 29.0005 20.9893 29.0005 22C29.0005 22.9187 28.8298 23.778 28.7278 24.292L28.6785 24.546C28.6425 24.7407 28.6945 24.9413 28.8218 25.0933C28.9478 25.246 29.1365 25.3333 29.3345 25.3333H33.3345C33.6765 25.3333 33.9625 25.0747 33.9978 24.7347C34.0118 24.6 34.3345 21.4167 34.3345 20C34.3345 16.5573 33.3738 14.4707 33.3325 14.3833H33.3312ZM32.7285 24H30.1398C30.2365 23.458 30.3332 22.7573 30.3332 22C30.3332 20.36 30.0232 18.9627 30.0105 18.904C29.9618 18.6853 29.8052 18.5053 29.5958 18.4267C29.5498 18.4093 28.4492 18 26.9998 18C25.5378 18 24.4478 18.41 24.4025 18.4273C24.1938 18.5073 24.0385 18.686 23.9898 18.9033C23.9765 18.962 23.6672 20.356 23.6672 22C23.6672 22.7567 23.7645 23.4573 23.8605 24H21.2712C21.1765 22.9987 20.9998 20.9967 20.9998 20C20.9998 17.3633 21.6185 15.5907 21.8158 15.0927C23.8505 13.5847 26.3665 12 26.9998 12C27.6332 12 30.1498 13.5847 32.1838 15.0927C32.3818 15.5927 32.9998 17.3647 32.9998 20C32.9998 20.9927 32.8225 22.9973 32.7285 24Z" fill="white"/>
</g>
<path d="M48.3174 23V13.2H49.7174V23H48.3174ZM42.0874 23V13.2H43.4874V23H42.0874ZM43.2494 18.576V17.428H48.6254V18.576H43.2494ZM54.9171 23.168C54.2545 23.168 53.6571 23.014 53.1251 22.706C52.6025 22.398 52.1871 21.9687 51.8791 21.418C51.5805 20.858 51.4311 20.214 51.4311 19.486C51.4311 18.7393 51.5851 18.0907 51.8931 17.54C52.2011 16.98 52.6211 16.546 53.1531 16.238C53.6851 15.93 54.2825 15.776 54.9451 15.776C55.6171 15.776 56.2145 15.93 56.7371 16.238C57.2598 16.546 57.6705 16.9753 57.9691 17.526C58.2771 18.0767 58.4311 18.7253 58.4311 19.472C58.4311 20.2187 58.2771 20.8673 57.9691 21.418C57.6705 21.9687 57.2551 22.398 56.7231 22.706C56.1911 23.014 55.5891 23.168 54.9171 23.168ZM54.9171 21.964C55.2998 21.964 55.6451 21.8707 55.9531 21.684C56.2705 21.4973 56.5225 21.222 56.7091 20.858C56.9051 20.4847 57.0031 20.0227 57.0031 19.472C57.0031 18.9213 56.9098 18.464 56.7231 18.1C56.5365 17.7267 56.2845 17.4467 55.9671 17.26C55.6591 17.0733 55.3185 16.98 54.9451 16.98C54.5718 16.98 54.2265 17.0733 53.9091 17.26C53.5918 17.4467 53.3351 17.7267 53.1391 18.1C52.9525 18.464 52.8591 18.9213 52.8591 19.472C52.8591 20.0227 52.9525 20.4847 53.1391 20.858C53.3351 21.222 53.5871 21.4973 53.8951 21.684C54.2125 21.8707 54.5531 21.964 54.9171 21.964ZM60.078 23V15.944H61.338L61.436 16.938C61.66 16.574 61.9586 16.2893 62.332 16.084C62.7053 15.8787 63.1253 15.776 63.592 15.776C63.9466 15.776 64.2686 15.8273 64.558 15.93C64.8473 16.0233 65.104 16.168 65.328 16.364C65.552 16.56 65.734 16.8027 65.874 17.092C66.126 16.6813 66.462 16.3593 66.882 16.126C67.3113 15.8927 67.764 15.776 68.24 15.776C68.8093 15.776 69.2993 15.8927 69.71 16.126C70.1206 16.35 70.4333 16.6907 70.648 17.148C70.8626 17.596 70.97 18.156 70.97 18.828V23H69.584V18.968C69.584 18.3147 69.4486 17.82 69.178 17.484C68.9166 17.148 68.5293 16.98 68.016 16.98C67.6706 16.98 67.3626 17.0687 67.092 17.246C66.8213 17.4233 66.6066 17.68 66.448 18.016C66.2986 18.352 66.224 18.7627 66.224 19.248V23H64.824V18.968C64.824 18.3147 64.6886 17.82 64.418 17.484C64.1566 17.148 63.7693 16.98 63.256 16.98C62.9293 16.98 62.6306 17.0687 62.36 17.246C62.0893 17.4233 61.8746 17.68 61.716 18.016C61.5573 18.352 61.478 18.7627 61.478 19.248V23H60.078ZM75.9711 23.168C75.2991 23.168 74.7018 23.014 74.1791 22.706C73.6565 22.398 73.2458 21.9687 72.9471 21.418C72.6578 20.8673 72.5131 20.228 72.5131 19.5C72.5131 18.7533 72.6578 18.1047 72.9471 17.554C73.2458 16.994 73.6565 16.56 74.1791 16.252C74.7018 15.9347 75.3085 15.776 75.9991 15.776C76.6898 15.776 77.2825 15.93 77.7771 16.238C78.2718 16.546 78.6545 16.9567 78.9251 17.47C79.1958 17.974 79.3311 18.534 79.3311 19.15C79.3311 19.2433 79.3265 19.346 79.3171 19.458C79.3171 19.5607 79.3125 19.6773 79.3031 19.808H73.5351V18.814H77.9311C77.9031 18.226 77.7071 17.7687 77.3431 17.442C76.9791 17.106 76.5265 16.938 75.9851 16.938C75.6025 16.938 75.2525 17.0267 74.9351 17.204C74.6178 17.372 74.3611 17.624 74.1651 17.96C73.9785 18.2867 73.8851 18.702 73.8851 19.206V19.598C73.8851 20.1207 73.9785 20.564 74.1651 20.928C74.3611 21.2827 74.6178 21.5533 74.9351 21.74C75.2525 21.9173 75.5978 22.006 75.9711 22.006C76.4191 22.006 76.7878 21.908 77.0771 21.712C77.3665 21.516 77.5811 21.25 77.7211 20.914H79.1211C78.9998 21.3433 78.7945 21.7307 78.5051 22.076C78.2158 22.412 77.8565 22.678 77.4271 22.874C77.0071 23.07 76.5218 23.168 75.9711 23.168Z" fill="white"/>
<defs>
<linearGradient id="paint0_linear_547_474" x1="49.5" y1="0" x2="49.5" y2="36" gradientUnits="userSpaceOnUse">
<stop stop-color="#825BDD"/>
<stop offset="1" stop-color="#5A23DB"/>
</linearGradient>
<clipPath id="clip0_547_474">
<rect width="16" height="16" fill="white" transform="translate(19 10)"/>
</clipPath>
</defs>
</svg>
