<svg width="16" height="16" viewBox="0 0 16 16" fill="none" xmlns="http://www.w3.org/2000/svg">
<path d="M14.3312 4.38332C14.2852 4.28466 14.2145 4.19799 14.1265 4.13266C14.0878 4.10332 14.0452 4.07199 13.9998 4.03799V1.99999C13.9998 1.63199 13.7018 1.33332 13.3332 1.33332C12.9645 1.33332 12.6665 1.63199 12.6665 1.99999V3.08132C11.1252 2.01266 8.98784 0.666656 7.99984 0.666656C6.61317 0.666656 2.95917 3.31932 1.87317 4.13266C1.78517 4.19799 1.71517 4.28466 1.6685 4.38332C1.62717 4.47066 0.666504 6.55732 0.666504 9.99999C0.666504 11.422 0.989171 14.6 1.00317 14.7347C1.0385 15.0747 1.3245 15.3333 1.6665 15.3333H5.6665C5.8645 15.3333 6.05184 15.2453 6.17917 15.0933C6.30584 14.9413 6.3585 14.7407 6.3225 14.546L6.27317 14.2913C6.17117 13.7773 6.0005 12.9173 6.0005 12C6.0005 10.9873 6.13317 10.0613 6.21917 9.56866C6.59184 9.46866 7.2365 9.33332 8.0005 9.33332C8.75917 9.33332 9.4065 9.46932 9.78184 9.56932C9.86784 10.0633 10.0005 10.9893 10.0005 12C10.0005 12.9187 9.82984 13.778 9.72784 14.292L9.6785 14.546C9.6425 14.7407 9.6945 14.9413 9.82184 15.0933C9.94784 15.246 10.1365 15.3333 10.3345 15.3333H14.3345C14.6765 15.3333 14.9625 15.0747 14.9978 14.7347C15.0118 14.6 15.3345 11.4167 15.3345 9.99999C15.3345 6.55732 14.3738 4.47066 14.3325 4.38332H14.3312ZM13.7285 14H11.1398C11.2365 13.458 11.3332 12.7573 11.3332 12C11.3332 10.36 11.0232 8.96266 11.0105 8.90399C10.9618 8.68532 10.8052 8.50532 10.5958 8.42666C10.5498 8.40932 9.44917 7.99999 7.99984 7.99999C6.53784 7.99999 5.44784 8.40999 5.4025 8.42732C5.19384 8.50732 5.0385 8.68599 4.98984 8.90332C4.9765 8.96199 4.66717 10.356 4.66717 12C4.66717 12.7567 4.7645 13.4573 4.8605 14H2.27117C2.1765 12.9987 1.99984 10.9967 1.99984 9.99999C1.99984 7.36332 2.6185 5.59066 2.81584 5.09266C4.8505 3.58466 7.3665 1.99999 7.99984 1.99999C8.63317 1.99999 11.1498 3.58466 13.1838 5.09266C13.3818 5.59266 13.9998 7.36466 13.9998 9.99999C13.9998 10.9927 13.8225 12.9973 13.7285 14Z" fill="black"/>
</svg>
