<svg width="26" height="26" viewBox="0 0 26 26" fill="none" xmlns="http://www.w3.org/2000/svg">
<path fill-rule="evenodd" clip-rule="evenodd" d="M12.9998 8.9375C10.7562 8.9375 8.93734 10.7563 8.93734 13C8.93734 15.2437 10.7562 17.0625 12.9998 17.0625C15.2435 17.0625 17.0623 15.2437 17.0623 13C17.0623 10.7563 15.2435 8.9375 12.9998 8.9375ZM10.5623 13C10.5623 11.6538 11.6536 10.5625 12.9998 10.5625C14.346 10.5625 15.4373 11.6538 15.4373 13C15.4373 14.3462 14.346 15.4375 12.9998 15.4375C11.6536 15.4375 10.5623 14.3462 10.5623 13Z" fill="#3E1F67"/>
<path fill-rule="evenodd" clip-rule="evenodd" d="M12.9998 3.52084C8.10953 3.52084 4.81557 6.45038 2.90378 8.9341L2.86931 8.97889C2.43695 9.54041 2.03874 10.0576 1.76858 10.6691C1.47929 11.3239 1.354 12.0377 1.354 13C1.354 13.9623 1.47929 14.6761 1.76858 15.3309C2.03874 15.9424 2.43695 16.4596 2.86931 17.0211L2.90379 17.0659C4.81557 19.5496 8.10953 22.4792 12.9998 22.4792C17.8901 22.4792 21.1841 19.5496 23.0959 17.0659L23.1303 17.0211C23.5627 16.4596 23.9609 15.9424 24.2311 15.3309C24.5204 14.6761 24.6457 13.9623 24.6457 13C24.6457 12.0377 24.5204 11.3239 24.2311 10.6691C23.9609 10.0576 23.5627 9.5404 23.1303 8.97886L23.0959 8.9341C21.1841 6.45038 17.8901 3.52084 12.9998 3.52084ZM4.19149 9.92528C5.95669 7.632 8.82939 5.14584 12.9998 5.14584C17.1703 5.14584 20.043 7.632 21.8082 9.92528C22.2833 10.5426 22.5616 10.9114 22.7447 11.3258C22.9158 11.713 23.0207 12.1863 23.0207 13C23.0207 13.8137 22.9158 14.287 22.7447 14.6742C22.5616 15.0886 22.2833 15.4574 21.8082 16.0747C20.043 18.368 17.1703 20.8542 12.9998 20.8542C8.82939 20.8542 5.95669 18.368 4.19149 16.0747C3.71636 15.4574 3.43805 15.0886 3.25499 14.6742C3.08391 14.287 2.979 13.8137 2.979 13C2.979 12.1863 3.08391 11.713 3.25499 11.3258C3.43805 10.9114 3.71636 10.5426 4.19149 9.92528Z" fill="#3E1F67"/>
</svg>
