<svg width="113" height="138" viewBox="0 0 113 138" fill="none" xmlns="http://www.w3.org/2000/svg">
<path d="M50.9224 0.351425C30.3736 3.84146 17.3267 24.3903 23.1 44.2542C26.5248 56.1268 35.8533 65.1944 47.9543 68.4235C50.7594 69.1737 51.7379 69.2715 56.5 69.2715C61.2621 69.2715 62.2406 69.1737 65.0457 68.4235C77.1793 65.1944 86.4752 56.1594 89.9 44.2542C95.5754 24.6512 82.7894 4.1024 62.6973 0.481895C60.0879 0.0252533 53.3687 -0.0726013 50.9224 0.351425Z" fill="#D3D3D3"/>
<path d="M31.45 75.5938C18.8271 77.0616 7.80253 84.2047 3.0078 93.9899C1.37694 97.3168 0.659363 100.383 0.69198 104.101C0.724597 110.298 2.94257 115.256 8.19393 120.703C16.6744 129.51 28.0578 134.859 43.0943 137.11C47.8564 137.827 64.1324 137.925 68.7314 137.273C80.1474 135.642 89.3781 132.413 96.9453 127.357C100.533 124.976 105.85 119.986 107.905 117.115C109.633 114.702 111.101 111.636 111.786 108.994C112.438 106.482 112.438 101.688 111.819 98.9151C109.046 86.9772 96.1951 77.192 81.2238 75.5612C77.4402 75.1698 35.0053 75.1698 31.45 75.5938Z" fill="#D3D3D3"/>
</svg>
