<svg width="14" height="14" viewBox="0 0 14 14" fill="none" xmlns="http://www.w3.org/2000/svg">
<g clip-path="url(#clip0_10_112)">
<path d="M12.8333 7C12.8335 8.35206 12.3641 9.66221 11.5052 10.7064C10.6463 11.7506 9.45134 12.4641 8.12464 12.7247C6.79795 12.9854 5.4219 12.7771 4.23178 12.1355C3.04166 11.4939 2.11138 10.4588 1.6 9.20714C1.08862 7.95551 1.0279 6.56512 1.42823 5.27368C1.82856 3.98224 2.66506 2.86997 3.79472 2.12705C4.92438 1.38412 6.27704 1.05668 7.62141 1.20071C8.96578 1.34474 10.2184 1.95129 11.165 2.91667H8.75V4.08333H11.7501C12.0373 4.08302 12.3126 3.9688 12.5157 3.76572C12.7188 3.56263 12.833 3.28728 12.8333 3.00008V0H11.6667V1.785C10.472 0.716418 8.94671 0.0902176 7.34579 0.0110383C5.74488 -0.0681411 4.16528 0.404498 2.87096 1.34997C1.57663 2.29545 0.645992 3.65649 0.234549 5.20566C-0.176894 6.75482 -0.0442139 8.39827 0.610417 9.86137C1.26505 11.3245 2.40197 12.5186 3.83121 13.2442C5.26044 13.9698 6.8954 14.1829 8.46288 13.8479C10.0304 13.513 11.4354 12.6502 12.4432 11.4038C13.451 10.1574 14.0006 8.60287 14 7H12.8333Z" fill="#252525"/>
</g>
<defs>
<clipPath id="clip0_10_112">
<rect width="14" height="14" fill="white"/>
</clipPath>
</defs>
</svg>
