<svg width="18" height="18" viewBox="0 0 18 18" fill="none" xmlns="http://www.w3.org/2000/svg">
<path d="M4.5 16.5H3.3C2.82261 16.5 2.36477 16.3104 2.02721 15.9728C1.68964 15.6352 1.5 15.1774 1.5 14.7V13.5M13.5 16.5H14.7C15.1774 16.5 15.6352 16.3104 15.9728 15.9728C16.3104 15.6352 16.5 15.1774 16.5 14.7V13.5M16.5 4.5V3.3C16.5 2.82261 16.3104 2.36477 15.9728 2.02721C15.6352 1.68964 15.1774 1.5 14.7 1.5H13.5M4.5 1.5H3.3C2.82261 1.5 2.36477 1.68964 2.02721 2.02721C1.68964 2.36477 1.5 2.82261 1.5 3.3V4.5M13.5 6.75V11.25M10.5 6.75V11.25M7.5 6.75V11.25M4.5 6.75V11.25" stroke="white" stroke-width="1.125" stroke-miterlimit="10" stroke-linecap="round" stroke-linejoin="round"/>
</svg>
