<svg width="99" height="38" viewBox="0 0 99 38" fill="none" xmlns="http://www.w3.org/2000/svg">
<rect width="99" height="38" rx="19" fill="url(#paint0_linear_547_492)"/>
<path d="M24.5667 16.9487L24.3227 16.8127C24.108 16.7021 23.9273 16.5353 23.8001 16.33C23.7887 16.312 23.7781 16.2927 23.7567 16.2553C23.6131 16.0246 23.5433 15.7555 23.5567 15.484L23.5607 15.2007C23.5687 14.7473 23.5727 14.5193 23.5087 14.3153C23.4521 14.1338 23.3573 13.9665 23.2307 13.8247C23.0881 13.6647 22.8901 13.55 22.4934 13.322L22.1641 13.132C21.7694 12.9047 21.5714 12.7907 21.3614 12.7473C21.1759 12.7089 20.9843 12.7105 20.7994 12.752C20.5907 12.7987 20.3954 12.916 20.0054 13.1493L20.0034 13.1507L19.7674 13.2913C19.7301 13.314 19.7107 13.3247 19.6921 13.3353C19.5067 13.4387 19.3001 13.4953 19.0874 13.502C19.0661 13.5033 19.0441 13.5033 19.0007 13.5033L18.9141 13.5027C18.7013 13.496 18.4933 13.4384 18.3074 13.3347C18.2887 13.3247 18.2707 13.3133 18.2334 13.2907L17.9954 13.148C17.6027 12.912 17.4061 12.7947 17.1961 12.7473C17.0105 12.7058 16.8182 12.7044 16.6321 12.7433C16.4214 12.7873 16.2241 12.902 15.8287 13.1313L15.8267 13.132L15.5014 13.3207L15.4981 13.3233C15.1061 13.55 14.9094 13.6647 14.7681 13.824C14.6421 13.9656 14.5478 14.1324 14.4914 14.3133C14.4281 14.518 14.4314 14.746 14.4394 15.202L14.4441 15.4847C14.4441 15.528 14.4461 15.5493 14.4454 15.57C14.4419 15.8122 14.3725 16.0489 14.2447 16.2547C14.2227 16.292 14.2127 16.3107 14.2014 16.328C14.089 16.5094 13.9347 16.6613 13.7514 16.7707L13.6767 16.8127L13.4361 16.946C13.0347 17.168 12.8341 17.2793 12.6887 17.438C12.5595 17.5779 12.4618 17.7438 12.4021 17.9247C12.3354 18.1293 12.3354 18.358 12.3361 18.8167L12.3374 19.192C12.3381 19.6473 12.3394 19.8747 12.4067 20.078C12.4662 20.2577 12.5632 20.4227 12.6914 20.562C12.8367 20.7193 13.0354 20.83 13.4334 21.0513L13.6721 21.184C13.7127 21.2067 13.7334 21.2173 13.7527 21.2293C13.9616 21.3546 14.1323 21.5346 14.2461 21.75L14.2907 21.83C14.4033 22.0426 14.4563 22.2817 14.4441 22.522L14.4394 22.7933C14.4314 23.2507 14.4281 23.48 14.4921 23.6847C14.5487 23.866 14.6434 24.0333 14.7701 24.1753C14.9127 24.3353 15.1114 24.4493 15.5074 24.678L15.8367 24.868C16.2321 25.0953 16.4294 25.2093 16.6394 25.2527C16.8249 25.2911 17.0165 25.2895 17.2014 25.248C17.4107 25.2013 17.6061 25.084 17.9974 24.8493L18.2334 24.708C18.4367 24.5771 18.6717 24.5041 18.9134 24.4967H19.0867C19.2987 24.5033 19.5067 24.5613 19.6934 24.6647L19.7547 24.7013L20.0054 24.852C20.3987 25.088 20.5947 25.2053 20.8047 25.252C20.9902 25.294 21.1825 25.2958 21.3687 25.2573C21.5787 25.2133 21.7774 25.098 22.1727 24.8687L22.5027 24.6773C22.8947 24.4493 23.0914 24.3353 23.2327 24.176C23.3594 24.034 23.4527 23.8673 23.5094 23.6867C23.5727 23.4833 23.5694 23.2573 23.5614 22.808L23.5561 22.5147C23.5428 22.2436 23.6126 21.975 23.7561 21.7447L23.7994 21.6713C23.9118 21.4899 24.0661 21.3381 24.2494 21.2287L24.3227 21.188L24.3241 21.1873L24.5647 21.054C24.9661 20.8313 25.1667 20.7207 25.3127 20.562C25.4421 20.422 25.5394 20.2553 25.5987 20.0753C25.6654 19.872 25.6654 19.644 25.6641 19.1907L25.6627 18.808C25.6621 18.3527 25.6614 18.1247 25.5941 17.9213C25.5343 17.7418 25.437 17.5771 25.3087 17.438C25.1641 17.2807 24.9654 17.17 24.5681 16.9493L24.5667 16.9487Z" stroke="white" stroke-width="1.33333" stroke-linecap="round" stroke-linejoin="round"/>
<path d="M16.3335 19C16.3335 19.7072 16.6144 20.3855 17.1145 20.8856C17.6146 21.3857 18.2929 21.6667 19.0002 21.6667C19.7074 21.6667 20.3857 21.3857 20.8858 20.8856C21.3859 20.3855 21.6668 19.7072 21.6668 19C21.6668 18.2928 21.3859 17.6145 20.8858 17.1144C20.3857 16.6143 19.7074 16.3333 19.0002 16.3333C18.2929 16.3333 17.6146 16.6143 17.1145 17.1144C16.6144 17.6145 16.3335 18.2928 16.3335 19Z" stroke="white" stroke-width="1.33333" stroke-linecap="round" stroke-linejoin="round"/>
<path d="M37.562 24.168C36.8433 24.168 36.2133 24.042 35.672 23.79C35.1307 23.5287 34.7107 23.1647 34.412 22.698C34.1133 22.2313 33.964 21.6853 33.964 21.06H35.434C35.4433 21.4147 35.5273 21.7413 35.686 22.04C35.854 22.3293 36.092 22.5627 36.4 22.74C36.7173 22.908 37.1047 22.992 37.562 22.992C37.954 22.992 38.29 22.9267 38.57 22.796C38.8593 22.6653 39.0787 22.488 39.228 22.264C39.3773 22.0307 39.452 21.7647 39.452 21.466C39.452 21.1207 39.3727 20.836 39.214 20.612C39.0553 20.388 38.8407 20.206 38.57 20.066C38.3087 19.9167 38.0007 19.786 37.646 19.674C37.3007 19.562 36.9367 19.4407 36.554 19.31C35.7793 19.058 35.2007 18.7313 34.818 18.33C34.4447 17.9287 34.258 17.406 34.258 16.762C34.258 16.2113 34.3887 15.7353 34.65 15.334C34.9113 14.9233 35.2753 14.606 35.742 14.382C36.218 14.1487 36.778 14.032 37.422 14.032C38.0567 14.032 38.612 14.1487 39.088 14.382C39.564 14.6153 39.9373 14.9373 40.208 15.348C40.4787 15.7587 40.614 16.2393 40.614 16.79H39.13C39.13 16.538 39.0647 16.2907 38.934 16.048C38.8033 15.8053 38.6073 15.6093 38.346 15.46C38.0847 15.3013 37.7627 15.222 37.38 15.222C37.0627 15.2127 36.778 15.264 36.526 15.376C36.274 15.488 36.078 15.6513 35.938 15.866C35.798 16.0807 35.728 16.3373 35.728 16.636C35.728 16.9347 35.7887 17.1773 35.91 17.364C36.0407 17.5413 36.2273 17.6953 36.47 17.826C36.7127 17.9567 36.9927 18.078 37.31 18.19C37.6367 18.2927 37.996 18.4093 38.388 18.54C38.8733 18.6987 39.3027 18.8947 39.676 19.128C40.0587 19.352 40.3573 19.646 40.572 20.01C40.796 20.3647 40.908 20.822 40.908 21.382C40.908 21.8673 40.782 22.32 40.53 22.74C40.278 23.16 39.9047 23.5053 39.41 23.776C38.9153 24.0373 38.2993 24.168 37.562 24.168ZM45.6948 24.168C45.0228 24.168 44.4254 24.014 43.9028 23.706C43.3801 23.398 42.9694 22.9687 42.6708 22.418C42.3814 21.8673 42.2368 21.228 42.2368 20.5C42.2368 19.7533 42.3814 19.1047 42.6708 18.554C42.9694 17.994 43.3801 17.56 43.9028 17.252C44.4254 16.9347 45.0321 16.776 45.7228 16.776C46.4134 16.776 47.0061 16.93 47.5008 17.238C47.9954 17.546 48.3781 17.9567 48.6488 18.47C48.9194 18.974 49.0548 19.534 49.0548 20.15C49.0548 20.2433 49.0501 20.346 49.0408 20.458C49.0408 20.5607 49.0361 20.6773 49.0268 20.808H43.2588V19.814H47.6548C47.6268 19.226 47.4308 18.7687 47.0668 18.442C46.7028 18.106 46.2501 17.938 45.7088 17.938C45.3261 17.938 44.9761 18.0267 44.6588 18.204C44.3414 18.372 44.0848 18.624 43.8888 18.96C43.7021 19.2867 43.6088 19.702 43.6088 20.206V20.598C43.6088 21.1207 43.7021 21.564 43.8888 21.928C44.0848 22.2827 44.3414 22.5533 44.6588 22.74C44.9761 22.9173 45.3214 23.006 45.6948 23.006C46.1428 23.006 46.5114 22.908 46.8008 22.712C47.0901 22.516 47.3048 22.25 47.4448 21.914H48.8448C48.7234 22.3433 48.5181 22.7307 48.2288 23.076C47.9394 23.412 47.5801 23.678 47.1508 23.874C46.7308 24.07 46.2454 24.168 45.6948 24.168ZM53.3308 24C52.8828 24 52.4955 23.93 52.1688 23.79C51.8421 23.65 51.5901 23.4167 51.4128 23.09C51.2355 22.7633 51.1468 22.32 51.1468 21.76V18.134H49.9288V16.944H51.1468L51.3148 15.18H52.5468V16.944H54.5488V18.134H52.5468V21.774C52.5468 22.1753 52.6308 22.4507 52.7988 22.6C52.9668 22.74 53.2561 22.81 53.6668 22.81H54.4788V24H53.3308ZM59.0046 24C58.5566 24 58.1693 23.93 57.8426 23.79C57.516 23.65 57.264 23.4167 57.0866 23.09C56.9093 22.7633 56.8206 22.32 56.8206 21.76V18.134H55.6026V16.944H56.8206L56.9886 15.18H58.2206V16.944H60.2226V18.134H58.2206V21.774C58.2206 22.1753 58.3046 22.4507 58.4726 22.6C58.6406 22.74 58.93 22.81 59.3406 22.81H60.1526V24H59.0046ZM61.8645 24V16.944H63.2645V24H61.8645ZM62.5785 15.614C62.3078 15.614 62.0838 15.53 61.9065 15.362C61.7385 15.194 61.6545 14.9793 61.6545 14.718C61.6545 14.466 61.7385 14.2607 61.9065 14.102C62.0838 13.934 62.3078 13.85 62.5785 13.85C62.8398 13.85 63.0591 13.934 63.2365 14.102C63.4138 14.2607 63.5025 14.466 63.5025 14.718C63.5025 14.9793 63.4138 15.194 63.2365 15.362C63.0591 15.53 62.8398 15.614 62.5785 15.614ZM65.2665 24V16.944H66.5265L66.6105 18.148C66.8345 17.728 67.1518 17.3967 67.5625 17.154C67.9731 16.902 68.4445 16.776 68.9765 16.776C69.5365 16.776 70.0171 16.888 70.4185 17.112C70.8198 17.336 71.1325 17.6767 71.3565 18.134C71.5805 18.582 71.6925 19.1467 71.6925 19.828V24H70.2925V19.968C70.2925 19.3147 70.1478 18.82 69.8585 18.484C69.5691 18.148 69.1491 17.98 68.5985 17.98C68.2345 17.98 67.9078 18.0687 67.6185 18.246C67.3291 18.414 67.0958 18.666 66.9185 19.002C66.7505 19.338 66.6665 19.7487 66.6665 20.234V24H65.2665ZM76.3533 27.248C75.7093 27.248 75.1399 27.164 74.6453 26.996C74.1506 26.8373 73.7679 26.59 73.4973 26.254C73.2266 25.918 73.0913 25.5073 73.0913 25.022C73.0913 24.77 73.1473 24.5133 73.2593 24.252C73.3713 24 73.5533 23.7573 73.8053 23.524C74.0573 23.2907 74.3979 23.0807 74.8273 22.894L75.6113 23.524C75.1353 23.7013 74.8133 23.9113 74.6453 24.154C74.4866 24.406 74.4073 24.6487 74.4073 24.882C74.4073 25.162 74.4913 25.3953 74.6593 25.582C74.8273 25.7687 75.0559 25.9087 75.3453 26.002C75.6439 26.0953 75.9799 26.142 76.3533 26.142C76.7173 26.142 77.0346 26.0907 77.3053 25.988C77.5759 25.8853 77.7859 25.7407 77.9353 25.554C78.0846 25.3673 78.1593 25.148 78.1593 24.896C78.1593 24.5973 78.0473 24.3453 77.8233 24.14C77.5993 23.944 77.1699 23.8273 76.5353 23.79C76.0033 23.7527 75.5506 23.7013 75.1773 23.636C74.8133 23.5707 74.5006 23.4913 74.2393 23.398C73.9873 23.3047 73.7726 23.202 73.5953 23.09C73.4273 22.978 73.2826 22.8613 73.1613 22.74V22.418L74.5613 20.976L75.6953 21.368L74.1693 22.782L74.4633 22.152C74.5659 22.2173 74.6639 22.2827 74.7573 22.348C74.8506 22.404 74.9766 22.4553 75.1353 22.502C75.2939 22.5487 75.5086 22.5907 75.7793 22.628C76.0499 22.6653 76.4046 22.7027 76.8433 22.74C77.4779 22.7867 77.9866 22.8987 78.3693 23.076C78.7613 23.2533 79.0459 23.4913 79.2233 23.79C79.4006 24.0887 79.4893 24.4433 79.4893 24.854C79.4893 25.2553 79.3773 25.638 79.1533 26.002C78.9386 26.366 78.5979 26.6647 78.1313 26.898C77.6739 27.1313 77.0813 27.248 76.3533 27.248ZM76.3533 21.83C75.7559 21.83 75.2473 21.718 74.8273 21.494C74.4166 21.27 74.0993 20.9667 73.8753 20.584C73.6606 20.2013 73.5533 19.7767 73.5533 19.31C73.5533 18.834 73.6606 18.4093 73.8753 18.036C74.0993 17.6533 74.4213 17.35 74.8413 17.126C75.2613 16.8927 75.7653 16.776 76.3533 16.776C76.9413 16.776 77.4406 16.8927 77.8513 17.126C78.2713 17.35 78.5886 17.6533 78.8033 18.036C79.0273 18.4093 79.1393 18.834 79.1393 19.31C79.1393 19.7767 79.0273 20.2013 78.8033 20.584C78.5886 20.9667 78.2713 21.27 77.8513 21.494C77.4406 21.718 76.9413 21.83 76.3533 21.83ZM76.3533 20.71C76.8106 20.71 77.1746 20.5933 77.4453 20.36C77.7159 20.1173 77.8513 19.7673 77.8513 19.31C77.8513 18.8527 77.7159 18.5073 77.4453 18.274C77.1746 18.0313 76.8106 17.91 76.3533 17.91C75.8959 17.91 75.5273 18.0313 75.2473 18.274C74.9673 18.5073 74.8273 18.8527 74.8273 19.31C74.8273 19.7673 74.9673 20.1173 75.2473 20.36C75.5273 20.5933 75.8959 20.71 76.3533 20.71ZM77.5013 18.05L77.1653 16.944H80.0633V17.91L77.5013 18.05ZM84.1976 24.168C83.6003 24.168 83.0776 24.07 82.6296 23.874C82.1816 23.678 81.827 23.4027 81.5656 23.048C81.3043 22.6933 81.1456 22.278 81.0896 21.802H82.5176C82.5643 22.026 82.653 22.2313 82.7836 22.418C82.9236 22.6047 83.1103 22.754 83.3436 22.866C83.5863 22.978 83.871 23.034 84.1976 23.034C84.5056 23.034 84.7576 22.992 84.9536 22.908C85.159 22.8147 85.3083 22.6933 85.4016 22.544C85.495 22.3853 85.5416 22.2173 85.5416 22.04C85.5416 21.7787 85.4763 21.5827 85.3456 21.452C85.2243 21.312 85.0376 21.2047 84.7856 21.13C84.543 21.046 84.249 20.9713 83.9036 20.906C83.577 20.85 83.2596 20.7753 82.9516 20.682C82.653 20.5793 82.3823 20.4533 82.1396 20.304C81.9063 20.1547 81.7196 19.968 81.5796 19.744C81.4396 19.5107 81.3696 19.226 81.3696 18.89C81.3696 18.4887 81.477 18.1293 81.6916 17.812C81.9063 17.4853 82.2096 17.2333 82.6016 17.056C83.003 16.8693 83.4743 16.776 84.0156 16.776C84.7996 16.776 85.4296 16.9627 85.9056 17.336C86.3816 17.7093 86.6616 18.2367 86.7456 18.918H85.3876C85.3503 18.6007 85.2103 18.358 84.9676 18.19C84.725 18.0127 84.403 17.924 84.0016 17.924C83.6003 17.924 83.2923 18.0033 83.0776 18.162C82.863 18.3207 82.7556 18.5307 82.7556 18.792C82.7556 18.96 82.8163 19.1093 82.9376 19.24C83.059 19.3707 83.2363 19.4827 83.4696 19.576C83.7123 19.66 84.0063 19.7393 84.3516 19.814C84.8463 19.9073 85.2896 20.024 85.6816 20.164C86.0736 20.304 86.3863 20.5093 86.6196 20.78C86.853 21.0507 86.9696 21.438 86.9696 21.942C86.979 22.3807 86.867 22.768 86.6336 23.104C86.4096 23.44 86.0876 23.7013 85.6676 23.888C85.257 24.0747 84.767 24.168 84.1976 24.168Z" fill="white"/>
<defs>
<linearGradient id="paint0_linear_547_492" x1="49.5" y1="0" x2="49.5" y2="38" gradientUnits="userSpaceOnUse">
<stop stop-color="#825BDD"/>
<stop offset="1" stop-color="#5A23DB"/>
</linearGradient>
</defs>
</svg>
