<svg width="17" height="16" viewBox="0 0 17 16" fill="none" xmlns="http://www.w3.org/2000/svg">
<path d="M14.0667 5.94865L13.8227 5.81265C13.608 5.70207 13.4273 5.53524 13.3001 5.32998C13.2887 5.31198 13.2781 5.29265 13.2567 5.25532C13.1131 5.02457 13.0433 4.75546 13.0567 4.48398L13.0607 4.20065C13.0687 3.74732 13.0727 3.51932 13.0087 3.31532C12.9521 3.13379 12.8573 2.96649 12.7307 2.82465C12.5881 2.66465 12.3901 2.54998 11.9934 2.32198L11.6641 2.13198C11.2694 1.90465 11.0714 1.79065 10.8614 1.74732C10.6759 1.7089 10.4843 1.71049 10.2994 1.75198C10.0907 1.79865 9.89539 1.91598 9.50539 2.14932L9.50339 2.15065L9.26739 2.29132C9.23005 2.31398 9.21072 2.32465 9.19205 2.33532C9.00672 2.43865 8.80005 2.49532 8.58739 2.50198C8.56605 2.50332 8.54405 2.50332 8.50072 2.50332L8.41405 2.50265C8.20131 2.49595 7.99327 2.43834 7.80739 2.33465C7.78872 2.32465 7.77072 2.31332 7.73339 2.29065L7.49539 2.14798C7.10272 1.91198 6.90605 1.79465 6.69605 1.74732C6.51049 1.70574 6.31818 1.70437 6.13205 1.74332C5.92139 1.78732 5.72405 1.90198 5.32872 2.13132L5.32672 2.13198L5.00139 2.32065L4.99805 2.32332C4.60605 2.54998 4.40939 2.66465 4.26805 2.82398C4.1421 2.96558 4.04779 3.1324 3.99139 3.31332C3.92805 3.51798 3.93139 3.74598 3.93939 4.20198L3.94405 4.48465C3.94405 4.52798 3.94605 4.54932 3.94539 4.56998C3.94187 4.81219 3.8725 5.04887 3.74472 5.25465C3.72272 5.29198 3.71272 5.31065 3.70139 5.32798C3.58898 5.50943 3.43466 5.66124 3.25139 5.77065L3.17672 5.81265L2.93605 5.94598C2.53472 6.16798 2.33405 6.27932 2.18872 6.43798C2.05951 6.57787 1.96176 6.74382 1.90205 6.92465C1.83539 7.12932 1.83539 7.35798 1.83605 7.81665L1.83739 8.19198C1.83805 8.64732 1.83939 8.87465 1.90672 9.07798C1.96618 9.25769 2.06322 9.42269 2.19139 9.56198C2.33672 9.71932 2.53539 9.82998 2.93339 10.0513L3.17205 10.184C3.21272 10.2066 3.23339 10.2173 3.25272 10.2293C3.46164 10.3546 3.63225 10.5346 3.74605 10.75L3.79072 10.83C3.90333 11.0426 3.95631 11.2817 3.94405 11.522L3.93939 11.7933C3.93139 12.2506 3.92805 12.48 3.99205 12.6846C4.04872 12.866 4.14339 13.0333 4.27005 13.1753C4.41272 13.3353 4.61139 13.4493 5.00739 13.678L5.33672 13.868C5.73205 14.0953 5.92939 14.2093 6.13939 14.2526C6.32492 14.291 6.51651 14.2895 6.70139 14.248C6.91072 14.2013 7.10605 14.084 7.49739 13.8493L7.73339 13.708C7.93666 13.5771 8.17174 13.504 8.41339 13.4966H8.58672C8.79872 13.5033 9.00672 13.5613 9.19339 13.6646L9.25472 13.7013L9.50539 13.852C9.89872 14.088 10.0947 14.2053 10.3047 14.252C10.4902 14.294 10.6825 14.2958 10.8687 14.2573C11.0787 14.2133 11.2774 14.098 11.6727 13.8686L12.0027 13.6773C12.3947 13.4493 12.5914 13.3353 12.7327 13.176C12.8594 13.034 12.9527 12.8673 13.0094 12.6866C13.0727 12.4833 13.0694 12.2573 13.0614 11.808L13.0561 11.5146C13.0428 11.2436 13.1126 10.975 13.2561 10.7446L13.2994 10.6713C13.4118 10.4899 13.5661 10.3381 13.7494 10.2286L13.8227 10.188L13.8241 10.1873L14.0647 10.054C14.4661 9.83132 14.6667 9.72065 14.8127 9.56198C14.9421 9.42198 15.0394 9.25532 15.0987 9.07532C15.1654 8.87198 15.1654 8.64398 15.1641 8.19065L15.1627 7.80798C15.1621 7.35265 15.1614 7.12465 15.0941 6.92132C15.0343 6.7418 14.937 6.57705 14.8087 6.43798C14.6641 6.28065 14.4654 6.16998 14.0681 5.94932L14.0667 5.94865Z" stroke="#121020" stroke-width="1.33333" stroke-linecap="round" stroke-linejoin="round"/>
<path d="M5.8335 7.99998C5.8335 8.70722 6.11445 9.3855 6.61454 9.8856C7.11464 10.3857 7.79292 10.6666 8.50016 10.6666C9.20741 10.6666 9.88568 10.3857 10.3858 9.8856C10.8859 9.3855 11.1668 8.70722 11.1668 7.99998C11.1668 7.29274 10.8859 6.61446 10.3858 6.11436C9.88568 5.61426 9.20741 5.33331 8.50016 5.33331C7.79292 5.33331 7.11464 5.61426 6.61454 6.11436C6.11445 6.61446 5.8335 7.29274 5.8335 7.99998Z" stroke="#121020" stroke-width="1.33333" stroke-linecap="round" stroke-linejoin="round"/>
</svg>
