<svg width="17" height="17" viewBox="0 0 17 17" fill="none" xmlns="http://www.w3.org/2000/svg">
<path d="M7.75019 1C4.70881 1.00548 3.11619 1.08014 2.09838 2.09795C1 3.19633 1 4.96415 1 8.49978C0.999999 12.0354 0.999999 13.8032 2.09838 14.9016C3.19676 16 4.96458 16 8.50022 16C12.0359 16 13.8037 16 14.9021 14.9016C15.9199 13.8838 15.9945 12.2912 16 9.24981" stroke="#5A23DB" stroke-linecap="round" stroke-linejoin="round"/>
<path d="M15.9994 3.52095L15.1665 3.51885C12.0527 3.51097 10.4958 3.50703 9.40127 4.29376C9.03754 4.5552 8.71836 4.87358 8.456 5.23665C7.6665 6.32917 7.6665 7.88607 7.6665 10.9999M15.9994 3.52095C16.005 3.38543 15.9566 3.24909 15.8541 3.12765C15.2165 2.37227 13.5591 0.999878 13.5591 0.999878M15.9994 3.52095C15.9944 3.64248 15.9459 3.76334 15.8539 3.87222C15.2162 4.62746 13.5591 5.99988 13.5591 5.99988" stroke="#5A23DB" stroke-linecap="round" stroke-linejoin="round"/>
</svg>
