<svg width="20" height="20" viewBox="0 0 20 20" fill="none" xmlns="http://www.w3.org/2000/svg">
<path fill-rule="evenodd" clip-rule="evenodd" d="M10.2087 2.36187C9.82499 2.29667 9.30197 2.29173 8.35849 2.29173C6.76125 2.29173 5.62595 2.29305 4.7652 2.40824C3.92196 2.5211 3.43743 2.73279 3.08525 3.08498C2.73257 3.43766 2.52118 3.9207 2.40846 4.7591C2.29332 5.61549 2.29199 6.74438 2.29199 8.3334V11.6667C2.29199 13.2557 2.29332 14.3846 2.40846 15.241C2.52118 16.0794 2.73257 16.5625 3.08524 16.9151C3.43792 17.2678 3.92096 17.4792 4.75937 17.5919C5.61575 17.7071 6.74464 17.7084 8.33366 17.7084H11.667C13.256 17.7084 14.3849 17.7071 15.2413 17.5919C16.0797 17.4792 16.5627 17.2678 16.9154 16.9151C17.2681 16.5625 17.4795 16.0794 17.5922 15.241C17.7073 14.3846 17.7087 13.2557 17.7087 11.6667V11.3025C17.7087 10.0225 17.6997 9.41568 17.5638 8.9584H14.9556C14.0116 8.95842 13.2401 8.95843 12.6311 8.87655C11.9944 8.79096 11.4425 8.60572 11.0019 8.16514C10.5613 7.72457 10.3761 7.17262 10.2905 6.53599C10.2086 5.92694 10.2086 5.1555 10.2087 4.21147V2.36187ZM11.4587 3.00794V4.16673C11.4587 5.16649 11.46 5.85344 11.5294 6.36943C11.5963 6.86745 11.7162 7.11164 11.8858 7.28126C12.0554 7.45088 12.2996 7.57074 12.7976 7.6377C13.3136 7.70707 14.0006 7.7084 15.0003 7.7084H16.6832C16.4362 7.46878 16.1197 7.18166 15.7087 6.81174L12.4097 3.84266C12.0052 3.47863 11.7041 3.20991 11.4587 3.00794ZM8.47987 1.04171C9.63371 1.0414 10.3792 1.0412 11.0653 1.30448C11.7514 1.56776 12.303 2.06447 13.1564 2.83298C13.1859 2.85951 13.2157 2.88636 13.2459 2.91354L16.5449 5.88262C16.58 5.91423 16.6147 5.94544 16.6489 5.97627C17.6353 6.86347 18.2732 7.43717 18.6163 8.20754C18.9594 8.9779 18.9591 9.83578 18.9587 11.1625C18.9587 11.2086 18.9587 11.2552 18.9587 11.3025V11.7137C18.9587 13.2452 18.9587 14.4582 18.831 15.4076C18.6997 16.3846 18.4229 17.1754 17.7993 17.799C17.1757 18.4227 16.3849 18.6994 15.4078 18.8308C14.4585 18.9584 13.2455 18.9584 11.714 18.9584H8.28665C6.75518 18.9584 5.54215 18.9584 4.59281 18.8308C3.61579 18.6994 2.825 18.4227 2.20136 17.799C1.57773 17.1754 1.30096 16.3846 1.1696 15.4076C1.04197 14.4582 1.04198 13.2452 1.04199 11.7137V8.28638C1.04198 6.75492 1.04197 5.54189 1.1696 4.59254C1.30096 3.61553 1.57773 2.82473 2.20136 2.2011C2.82548 1.57698 3.61892 1.30051 4.59938 1.16929C5.55268 1.04171 6.77175 1.04172 8.31159 1.04173L8.35849 1.04173C8.39945 1.04173 8.43991 1.04172 8.47987 1.04171Z" fill="#7A50DD"/>
<path fill-rule="evenodd" clip-rule="evenodd" d="M7.51112 10.7941C7.27071 10.5687 6.89661 10.5687 6.6562 10.7941L4.98953 12.3566C4.73771 12.5927 4.72495 12.9882 4.96103 13.24C5.19711 13.4918 5.59264 13.5046 5.84446 13.2685L6.45866 12.6927L6.45866 15.4167C6.45866 15.7619 6.73848 16.0417 7.08366 16.0417C7.42884 16.0417 7.70866 15.7619 7.70866 15.4167L7.70866 12.6927L8.32286 13.2685C8.57468 13.5046 8.97021 13.4918 9.20629 13.24C9.44237 12.9882 9.42961 12.5927 9.17779 12.3566L7.51112 10.7941Z" fill="#7A50DD"/>
</svg>
